<svg id="visual" viewBox="0 0 1920 1000" width="1920" height="1000" xmlns="http://www.w3.org/2000/svg" xmlns:xlink="http://www.w3.org/1999/xlink" version="1.1"><rect x="0" y="0" width="1920" height="1000" fill="#eafffb"></rect><defs><linearGradient id="grad1_0" x1="47.9%" y1="100%" x2="100%" y2="0%"><stop offset="11.600000000000001%" stop-color="#05bd9b" stop-opacity="1"></stop><stop offset="88.4%" stop-color="#05bd9b" stop-opacity="1"></stop></linearGradient></defs><defs><linearGradient id="grad1_1" x1="47.9%" y1="100%" x2="100%" y2="0%"><stop offset="11.600000000000001%" stop-color="#05bd9b" stop-opacity="1"></stop><stop offset="88.4%" stop-color="#91dfcd" stop-opacity="1"></stop></linearGradient></defs><defs><linearGradient id="grad1_2" x1="47.9%" y1="100%" x2="100%" y2="0%"><stop offset="11.600000000000001%" stop-color="#eafffb" stop-opacity="1"></stop><stop offset="88.4%" stop-color="#91dfcd" stop-opacity="1"></stop></linearGradient></defs><defs><linearGradient id="grad2_0" x1="0%" y1="100%" x2="52.1%" y2="0%"><stop offset="11.600000000000001%" stop-color="#05bd9b" stop-opacity="1"></stop><stop offset="88.4%" stop-color="#05bd9b" stop-opacity="1"></stop></linearGradient></defs><defs><linearGradient id="grad2_1" x1="0%" y1="100%" x2="52.1%" y2="0%"><stop offset="11.600000000000001%" stop-color="#91dfcd" stop-opacity="1"></stop><stop offset="88.4%" stop-color="#05bd9b" stop-opacity="1"></stop></linearGradient></defs><defs><linearGradient id="grad2_2" x1="0%" y1="100%" x2="52.1%" y2="0%"><stop offset="11.600000000000001%" stop-color="#91dfcd" stop-opacity="1"></stop><stop offset="88.4%" stop-color="#eafffb" stop-opacity="1"></stop></linearGradient></defs><g transform="translate(1920, 1000)"><path d="M-700 0C-602.4 -36.5 -504.8 -73 -503.2 -134.8C-501.7 -196.7 -596.2 -283.9 -606.2 -350C-616.2 -416.1 -541.7 -461.1 -462.4 -462.4C-383.2 -463.8 -299.3 -421.4 -250.5 -433.9C-201.7 -446.3 -187.8 -513.5 -151.9 -567C-116 -620.5 -58 -660.2 0 -700L0 0Z" fill="#beefe5"></path><path d="M-466.7 0C-401.6 -24.3 -336.5 -48.7 -335.5 -89.9C-334.5 -131.1 -397.5 -189.3 -404.1 -233.3C-410.8 -277.4 -361.1 -307.4 -308.3 -308.3C-255.5 -309.2 -199.6 -281 -167 -289.3C-134.4 -297.5 -125.2 -342.3 -101.3 -378C-77.3 -413.7 -38.7 -440.2 0 -466.7L0 0Z" fill="#5fceb5"></path><path d="M-233.3 0C-200.8 -12.2 -168.3 -24.3 -167.7 -44.9C-167.2 -65.6 -198.7 -94.6 -202.1 -116.7C-205.4 -138.7 -180.6 -153.7 -154.1 -154.1C-127.7 -154.6 -99.8 -140.5 -83.5 -144.6C-67.2 -148.8 -62.6 -171.2 -50.6 -189C-38.7 -206.8 -19.3 -220.1 0 -233.3L0 0Z" fill="#05bd9b"></path></g><g transform="translate(0, 0)"><path d="M700 0C625.1 42.5 550.3 85 541.9 145.2C533.5 205.4 591.6 283.2 583.7 337C575.8 390.8 501.8 420.7 443.4 443.4C384.9 466.1 342 481.6 303.5 525.7C265 569.7 231 642.3 181.2 676.1C131.3 710 65.7 705 0 700L0 0Z" fill="#beefe5"></path><path d="M466.7 0C416.8 28.3 366.8 56.7 361.3 96.8C355.7 136.9 394.4 188.8 389.1 224.7C383.9 260.5 334.5 280.4 295.6 295.6C256.6 310.7 228 321.1 202.3 350.5C176.7 379.8 154 428.2 120.8 450.8C87.6 473.3 43.8 470 0 466.7L0 0Z" fill="#5fceb5"></path><path d="M233.3 0C208.4 14.2 183.4 28.3 180.6 48.4C177.8 68.5 197.2 94.4 194.6 112.3C191.9 130.3 167.3 140.2 147.8 147.8C128.3 155.4 114 160.5 101.2 175.2C88.3 189.9 77 214.1 60.4 225.4C43.8 236.7 21.9 235 0 233.3L0 0Z" fill="#05bd9b"></path></g></svg>