<svg id="visual" viewBox="0 0 2000 520" width="2000" height="520" xmlns="http://www.w3.org/2000/svg" xmlns:xlink="http://www.w3.org/1999/xlink" version="1.1"><rect x="0" y="0" width="2000" height="520" fill="#05bd9b"></rect><path d="M0 437L30.3 425.3C60.7 413.7 121.3 390.3 182 391.3C242.7 392.3 303.3 417.7 363.8 425.7C424.3 433.7 484.7 424.3 545.2 410.8C605.7 397.3 666.3 379.7 727 374.2C787.7 368.7 848.3 375.3 909 394C969.7 412.7 1030.3 443.3 1091 444.3C1151.7 445.3 1212.3 416.7 1273 414.8C1333.7 413 1394.3 438 1454.8 441.5C1515.3 445 1575.7 427 1636.2 427.7C1696.7 428.3 1757.3 447.7 1818 454C1878.7 460.3 1939.3 453.7 1969.7 450.3L2000 447L2000 521L1969.7 521C1939.3 521 1878.7 521 1818 521C1757.3 521 1696.7 521 1636.2 521C1575.7 521 1515.3 521 1454.8 521C1394.3 521 1333.7 521 1273 521C1212.3 521 1151.7 521 1091 521C1030.3 521 969.7 521 909 521C848.3 521 787.7 521 727 521C666.3 521 605.7 521 545.2 521C484.7 521 424.3 521 363.8 521C303.3 521 242.7 521 182 521C121.3 521 60.7 521 30.3 521L0 521Z" fill="#021221" stroke-linecap="round" stroke-linejoin="miter"></path></svg>