<svg id="visual" viewBox="0 0 2000 520" width="2000" height="520" xmlns="http://www.w3.org/2000/svg" xmlns:xlink="http://www.w3.org/1999/xlink" version="1.1"><rect x="0" y="0" width="2000" height="520" fill="#021221"></rect><path d="M0 323L30.3 338.3C60.7 353.7 121.3 384.3 182 402.3C242.7 420.3 303.3 425.7 363.8 424C424.3 422.3 484.7 413.7 545.2 400.2C605.7 386.7 666.3 368.3 727 359C787.7 349.7 848.3 349.3 909 366C969.7 382.7 1030.3 416.3 1091 425.2C1151.7 434 1212.3 418 1273 390.3C1333.7 362.7 1394.3 323.3 1454.8 327.3C1515.3 331.3 1575.7 378.7 1636.2 379.5C1696.7 380.3 1757.3 334.7 1818 336C1878.7 337.3 1939.3 385.7 1969.7 409.8L2000 434L2000 521L1969.7 521C1939.3 521 1878.7 521 1818 521C1757.3 521 1696.7 521 1636.2 521C1575.7 521 1515.3 521 1454.8 521C1394.3 521 1333.7 521 1273 521C1212.3 521 1151.7 521 1091 521C1030.3 521 969.7 521 909 521C848.3 521 787.7 521 727 521C666.3 521 605.7 521 545.2 521C484.7 521 424.3 521 363.8 521C303.3 521 242.7 521 182 521C121.3 521 60.7 521 30.3 521L0 521Z" fill="#05bd9b" stroke-linecap="round" stroke-linejoin="miter"></path></svg>