<svg id="visual" viewBox="0 0 2000 520" width="2000" height="520" xmlns="http://www.w3.org/2000/svg" xmlns:xlink="http://www.w3.org/1999/xlink" version="1.1"><rect x="0" y="0" width="2000" height="520" fill="#021221"></rect><path d="M0 456L27.8 453C55.7 450 111.3 444 166.8 447.7C222.3 451.3 277.7 464.7 333.2 470.5C388.7 476.3 444.3 474.7 500 461.5C555.7 448.3 611.3 423.7 666.8 423.2C722.3 422.7 777.7 446.3 833.2 458.8C888.7 471.3 944.3 472.7 1000 469C1055.7 465.3 1111.3 456.7 1166.8 447C1222.3 437.3 1277.7 426.7 1333.2 432.7C1388.7 438.7 1444.3 461.3 1500 465.5C1555.7 469.7 1611.3 455.3 1666.8 441.7C1722.3 428 1777.7 415 1833.2 412.2C1888.7 409.3 1944.3 416.7 1972.2 420.3L2000 424L2000 521L1972.2 521C1944.3 521 1888.7 521 1833.2 521C1777.7 521 1722.3 521 1666.8 521C1611.3 521 1555.7 521 1500 521C1444.3 521 1388.7 521 1333.2 521C1277.7 521 1222.3 521 1166.8 521C1111.3 521 1055.7 521 1000 521C944.3 521 888.7 521 833.2 521C777.7 521 722.3 521 666.8 521C611.3 521 555.7 521 500 521C444.3 521 388.7 521 333.2 521C277.7 521 222.3 521 166.8 521C111.3 521 55.7 521 27.8 521L0 521Z" fill="#ffffff" stroke-linecap="round" stroke-linejoin="miter"></path></svg>