<svg id="visual" viewBox="0 0 1920 1000" width="1920" height="1000" xmlns="http://www.w3.org/2000/svg" xmlns:xlink="http://www.w3.org/1999/xlink" version="1.1"><rect x="0" y="0" width="1920" height="1000" fill="#efefef"></rect><defs><linearGradient id="grad1_0" x1="47.9%" y1="0%" x2="100%" y2="100%"><stop offset="11.600000000000001%" stop-color="#d31a71" stop-opacity="1"></stop><stop offset="88.4%" stop-color="#d31a71" stop-opacity="1"></stop></linearGradient></defs><defs><linearGradient id="grad1_1" x1="47.9%" y1="0%" x2="100%" y2="100%"><stop offset="11.600000000000001%" stop-color="#d31a71" stop-opacity="1"></stop><stop offset="88.4%" stop-color="#e994ae" stop-opacity="1"></stop></linearGradient></defs><defs><linearGradient id="grad1_2" x1="47.9%" y1="0%" x2="100%" y2="100%"><stop offset="11.600000000000001%" stop-color="#efefef" stop-opacity="1"></stop><stop offset="88.4%" stop-color="#e994ae" stop-opacity="1"></stop></linearGradient></defs><defs><linearGradient id="grad2_0" x1="0%" y1="0%" x2="52.1%" y2="100%"><stop offset="11.600000000000001%" stop-color="#d31a71" stop-opacity="1"></stop><stop offset="88.4%" stop-color="#d31a71" stop-opacity="1"></stop></linearGradient></defs><defs><linearGradient id="grad2_1" x1="0%" y1="0%" x2="52.1%" y2="100%"><stop offset="11.600000000000001%" stop-color="#e994ae" stop-opacity="1"></stop><stop offset="88.4%" stop-color="#d31a71" stop-opacity="1"></stop></linearGradient></defs><defs><linearGradient id="grad2_2" x1="0%" y1="0%" x2="52.1%" y2="100%"><stop offset="11.600000000000001%" stop-color="#e994ae" stop-opacity="1"></stop><stop offset="88.4%" stop-color="#efefef" stop-opacity="1"></stop></linearGradient></defs><g transform="translate(1920, 0)"><path d="M0 700C-58.6 693.3 -117.3 686.5 -181.2 676.1C-245.1 665.8 -314.2 651.8 -341.5 591.5C-368.8 531.2 -354.1 424.5 -361.3 361.3C-368.5 298.2 -397.6 278.7 -439.9 254C-482.3 229.3 -537.9 199.5 -583.4 156.3C-629 113.1 -664.5 56.6 -700 0L0 0Z" fill="#efc2ce"></path><path d="M0 466.7C-39.1 462.2 -78.2 457.7 -120.8 450.8C-163.4 443.9 -209.5 434.6 -227.7 394.3C-245.8 354.1 -236.1 283 -240.9 240.9C-245.7 198.8 -265.1 185.8 -293.3 169.3C-321.5 152.9 -358.6 133 -388.9 104.2C-419.3 75.4 -443 37.7 -466.7 0L0 0Z" fill="#e0628f"></path><path d="M0 233.3C-19.5 231.1 -39.1 228.8 -60.4 225.4C-81.7 221.9 -104.7 217.3 -113.8 197.2C-122.9 177.1 -118 141.5 -120.4 120.4C-122.8 99.4 -132.5 92.9 -146.6 84.7C-160.8 76.4 -179.3 66.5 -194.5 52.1C-209.7 37.7 -221.5 18.9 -233.3 0L0 0Z" fill="#d31a71"></path></g><g transform="translate(0, 1000)"><path d="M0 -700C48.2 -649.9 96.4 -599.7 157.4 -587.3C218.3 -574.9 291.9 -600.1 326.5 -565.5C361.1 -530.9 356.6 -436.3 389.6 -389.6C422.6 -342.9 493.1 -344.1 550.8 -318C608.5 -291.9 653.4 -238.7 676.1 -181.2C698.9 -123.6 699.4 -61.8 700 0L0 0Z" fill="#efc2ce"></path><path d="M0 -466.7C32.1 -433.2 64.3 -399.8 104.9 -391.5C145.5 -383.2 194.6 -400.1 217.7 -377C240.7 -353.9 237.7 -290.9 259.7 -259.7C281.7 -228.6 328.7 -229.4 367.2 -212C405.7 -194.6 435.6 -159.1 450.8 -120.8C465.9 -82.4 466.3 -41.2 466.7 0L0 0Z" fill="#e0628f"></path><path d="M0 -233.3C16.1 -216.6 32.1 -199.9 52.5 -195.8C72.8 -191.6 97.3 -200 108.8 -188.5C120.4 -177 118.9 -145.4 129.9 -129.9C140.9 -114.3 164.4 -114.7 183.6 -106C202.8 -97.3 217.8 -79.6 225.4 -60.4C233 -41.2 233.1 -20.6 233.3 0L0 0Z" fill="#d31a71"></path></g></svg>