<svg id="visual" viewBox="0 0 2000 520" width="2000" height="520" xmlns="http://www.w3.org/2000/svg" xmlns:xlink="http://www.w3.org/1999/xlink" version="1.1"><rect x="0" y="0" width="2000" height="520" fill="#efefef"></rect><path d="M0 59L30.3 64.2C60.7 69.3 121.3 79.7 182 82.5C242.7 85.3 303.3 80.7 363.8 89.2C424.3 97.7 484.7 119.3 545.2 131.8C605.7 144.3 666.3 147.7 727 135.5C787.7 123.3 848.3 95.7 909 89.5C969.7 83.3 1030.3 98.7 1091 108.2C1151.7 117.7 1212.3 121.3 1273 116.2C1333.7 111 1394.3 97 1454.8 91.3C1515.3 85.7 1575.7 88.3 1636.2 85.7C1696.7 83 1757.3 75 1818 81.5C1878.7 88 1939.3 109 1969.7 119.5L2000 130L2000 0L1969.7 0C1939.3 0 1878.7 0 1818 0C1757.3 0 1696.7 0 1636.2 0C1575.7 0 1515.3 0 1454.8 0C1394.3 0 1333.7 0 1273 0C1212.3 0 1151.7 0 1091 0C1030.3 0 969.7 0 909 0C848.3 0 787.7 0 727 0C666.3 0 605.7 0 545.2 0C484.7 0 424.3 0 363.8 0C303.3 0 242.7 0 182 0C121.3 0 60.7 0 30.3 0L0 0Z" fill="#021221" stroke-linecap="round" stroke-linejoin="miter"></path></svg>