<svg id="visual" viewBox="0 0 2000 480" width="2000" height="480" xmlns="http://www.w3.org/2000/svg" xmlns:xlink="http://www.w3.org/1999/xlink" version="1.1"><rect x="0" y="0" width="2000" height="480" fill="#021221"></rect><path d="M0 201L23.8 223.5C47.7 246 95.3 291 143 287.5C190.7 284 238.3 232 286 210C333.7 188 381.3 196 428.8 217.8C476.3 239.7 523.7 275.3 571.2 277.2C618.7 279 666.3 247 714 243.8C761.7 240.7 809.3 266.3 857 261.3C904.7 256.3 952.3 220.7 1000 223.7C1047.7 226.7 1095.3 268.3 1143 300.3C1190.7 332.3 1238.3 354.7 1286 327.5C1333.7 300.3 1381.3 223.7 1428.8 214C1476.3 204.3 1523.7 261.7 1571.2 280.2C1618.7 298.7 1666.3 278.3 1714 280.5C1761.7 282.7 1809.3 307.3 1857 315.7C1904.7 324 1952.3 316 1976.2 312L2000 308L2000 481L1976.2 481C1952.3 481 1904.7 481 1857 481C1809.3 481 1761.7 481 1714 481C1666.3 481 1618.7 481 1571.2 481C1523.7 481 1476.3 481 1428.8 481C1381.3 481 1333.7 481 1286 481C1238.3 481 1190.7 481 1143 481C1095.3 481 1047.7 481 1000 481C952.3 481 904.7 481 857 481C809.3 481 761.7 481 714 481C666.3 481 618.7 481 571.2 481C523.7 481 476.3 481 428.8 481C381.3 481 333.7 481 286 481C238.3 481 190.7 481 143 481C95.3 481 47.7 481 23.8 481L0 481Z" fill="#021221" stroke-linecap="round" stroke-linejoin="miter"></path></svg>