<svg id="visual" viewBox="0 0 1300 550" width="1300" height="550" xmlns="http://www.w3.org/2000/svg" xmlns:xlink="http://www.w3.org/1999/xlink" version="1.1"><rect x="0" y="0" width="1300" height="550" fill="#002233"></rect><path d="M0 433L54.2 430.5C108.3 428 216.7 423 325 430.5C433.3 438 541.7 458 650 454.8C758.3 451.7 866.7 425.3 975 425.5C1083.3 425.7 1191.7 452.3 1245.8 465.7L1300 479L1300 551L1245.8 551C1191.7 551 1083.3 551 975 551C866.7 551 758.3 551 650 551C541.7 551 433.3 551 325 551C216.7 551 108.3 551 54.2 551L0 551Z" fill="#05bd9b" stroke-linecap="round" stroke-linejoin="miter"></path></svg>