<svg id="Positivo_Responsive" data-name="Positivo Responsive" xmlns="http://www.w3.org/2000/svg" xmlns:xlink="http://www.w3.org/1999/xlink" width="78.047" height="78" viewBox="0 0 78.047 78">
  <defs>
    <clipPath id="clip-path">
      <rect id="Rectángulo_1" data-name="Rectángulo 1" width="36.047" height="35.821" fill="#fff"/>
    </clipPath>
    <clipPath id="clip-path-2">
      <circle id="Elipse_6" data-name="Elipse 6" cx="39" cy="39" r="39" transform="translate(1471 365.894)" fill="#521e04" opacity="0.55"/>
    </clipPath>
  </defs>
  <g id="Grupo_11" data-name="Grupo 11">
    <circle id="Elipse_5" data-name="Elipse 5" cx="39" cy="39" r="39" fill="#2c2a29"/>
    <g id="Grupo_5" data-name="Grupo 5" transform="translate(21 21)">
      <g id="Grupo_1" data-name="Grupo 1" clip-path="url(#clip-path)">
        <path id="Trazado_1" data-name="Trazado 1" d="M19.932,11.048a1.423,1.423,0,0,0,1.89.966A142.3,142.3,0,0,1,42.855,7.4a1.287,1.287,0,0,0,.969-1.8c-.636-1.779-.957-2.667-1.608-4.436A1.75,1.75,0,0,0,40.43.009,131.5,131.5,0,0,0,19.885,4.076a1.818,1.818,0,0,0-1.2,2.125c.5,1.936.745,2.905,1.249,4.847" transform="translate(-13.472 0)" fill="#fff"/>
        <path id="Trazado_2" data-name="Trazado 2" d="M34.532,40.153a1.7,1.7,0,0,0-1.72-1.233A114.3,114.3,0,0,0,1.057,47.433,1.968,1.968,0,0,0,.031,49.511c.4,2.075.6,3.114,1,5.194a1.236,1.236,0,0,0,1.837.9A125.333,125.333,0,0,1,35.158,46.19a1.254,1.254,0,0,0,.8-1.749c-.562-1.719-.847-2.577-1.425-4.288" transform="translate(0 -28.132)" fill="#fff"/>
        <path id="Trazado_3" data-name="Trazado 3" d="M64.192,81.918a1.679,1.679,0,0,0-1.82-1.249,178.743,178.743,0,0,0-20.16,5.5,1.689,1.689,0,0,0-1.093,1.994c.527,1.927.792,2.892,1.325,4.825a1.653,1.653,0,0,0,2.225,1.015,200.469,200.469,0,0,1,20.153-6.053,1.267,1.267,0,0,0,.735-1.707c-.538-1.735-.811-2.6-1.364-4.329" transform="translate(-29.691 -58.308)" fill="#fff"/>
      </g>
    </g>
  </g>
  <g id="Enmascarar_grupo_6" data-name="Enmascarar grupo 6" transform="translate(-1471 -365.894)" clip-path="url(#clip-path-2)">
    <path id="Trazado_42" data-name="Trazado 42" d="M23.636,52.641a1.526,1.526,0,0,1-1.045-.412,71.271,71.271,0,0,1-9.369-10.7,71.905,71.905,0,0,1-7.074-12.34A71.1,71.1,0,0,1,0,1.556,1.531,1.531,0,0,1,1.507,0h.025A1.531,1.531,0,0,1,3.063,1.506,68.014,68.014,0,0,0,8.945,27.941,68.96,68.96,0,0,0,24.681,49.99a1.531,1.531,0,0,1-1.045,2.651" transform="matrix(0.982, -0.191, 0.191, 0.982, 1487.119, 328.908)" fill="#00c389"/>
    <path id="Trazado_43" data-name="Trazado 43" d="M18.311,18.967A99.858,99.858,0,0,1,1.9,17.617a2.274,2.274,0,0,1,.747-4.487,97.861,97.861,0,0,0,34.625-.539A102.286,102.286,0,0,0,54,7.865,101.413,101.413,0,0,0,69.637.317a2.274,2.274,0,1,1,2.316,3.915A106.031,106.031,0,0,1,55.61,12.12a106.862,106.862,0,0,1-17.479,4.938,105.023,105.023,0,0,1-19.819,1.91" transform="translate(1499.178 335.378) rotate(49)" fill="#fdda24"/>
    <path id="Trazado_44" data-name="Trazado 44" d="M35.3,10.1a120.125,120.125,0,0,1-12.821-.685A119.605,119.605,0,0,1,2.19,5.435,2.727,2.727,0,0,1,.161,1.916,3.3,3.3,0,0,1,4.183.141,112.437,112.437,0,0,0,23.254,3.88a112.84,112.84,0,0,0,19.471.4,3.081,3.081,0,0,1,3.418,2.568,2.934,2.934,0,0,1-2.936,2.99q-3.94.261-7.907.261" transform="matrix(0.985, 0.174, -0.174, 0.985, 1529.212, 378.523)" fill="#9063cd"/>
  </g>
</svg>
